<?xml version="1.0" standalone="no"?><!DOCTYPE svg PUBLIC "-//W3C//DTD SVG 1.1//EN" "http://www.w3.org/Graphics/SVG/1.1/DTD/svg11.dtd"><svg t="1716878150418" class="icon" viewBox="0 0 1024 1024" version="1.1" xmlns="http://www.w3.org/2000/svg" p-id="3052" xmlns:xlink="http://www.w3.org/1999/xlink" width="200" height="200"><path d="M650.24 896H385.28c-49.92 0-89.6-39.68-89.6-89.6V595.2h445.44V806.4c-1.28 48.64-40.96 89.6-90.88 89.6zM321.28 620.8V806.4c0 35.84 28.16 64 64 64h266.24c35.84 0 64-28.16 64-64V620.8H321.28z" fill="#333333" p-id="3053"></path><path d="M308.48 654.08h407.04v25.6H308.48zM833.28 357.12c-2.56 0-61.44-7.68-135.68 12.8 17.92-89.6 11.52-161.28 11.52-165.12l-1.28-19.2-16.64 8.96c-2.56 1.28-55.04 30.72-107.52 89.6-23.04-84.48-56.32-140.8-57.6-143.36l-11.52-17.92-11.52 17.92c-2.56 2.56-37.12 61.44-58.88 148.48-53.76-61.44-107.52-90.88-110.08-92.16l-16.64-8.96-1.28 19.2c0 3.84-6.4 75.52 10.24 163.84-72.96-20.48-133.12-12.8-134.4-12.8l-15.36 2.56 5.12 15.36c1.28 5.12 52.48 142.08 161.28 218.88h51.2c-11.52-6.4-23.04-12.8-33.28-20.48-81.92-57.6-130.56-153.6-147.2-192 24.32 0 72.96 1.28 126.72 19.2 29.44 10.24 55.04 23.04 79.36 39.68 5.12 2.56 8.96 6.4 14.08 10.24 16.64 14.08 32 29.44 47.36 46.08 7.68 8.96 15.36 16.64 23.04 26.88 12.8 17.92 25.6 37.12 37.12 57.6 2.56 5.12 5.12 8.96 7.68 12.8H576c-1.28-3.84-3.84-6.4-5.12-10.24l-7.68-11.52c-2.56-26.88-6.4-53.76-12.8-78.08 14.08-16.64 28.16-32 43.52-43.52 3.84-3.84 8.96-6.4 12.8-10.24 24.32-16.64 51.2-29.44 79.36-39.68v1.28c53.76-19.2 102.4-20.48 126.72-19.2-16.64 37.12-65.28 134.4-147.2 192-10.24 7.68-21.76 14.08-33.28 20.48h48.64c108.8-76.8 160-213.76 162.56-220.16l5.12-15.36-15.36-3.84z m-266.24 230.4l-1.28 1.28 1.28-1.28zM512 175.36c14.08 25.6 34.56 74.24 48.64 135.68-19.2 24.32-35.84 49.92-48.64 76.8-3.84-6.4-6.4-12.8-10.24-19.2-7.68-12.8-15.36-26.88-24.32-38.4-3.84-6.4-8.96-11.52-12.8-17.92 14.08-61.44 35.84-111.36 47.36-136.96z m11.52 334.08c-7.68-10.24-16.64-20.48-24.32-29.44-16.64-17.92-33.28-34.56-51.2-48.64-5.12-3.84-8.96-6.4-14.08-10.24h-1.28c-24.32-16.64-51.2-30.72-79.36-40.96-14.08-62.72-15.36-120.32-14.08-149.76 23.04 15.36 62.72 46.08 101.12 93.44h1.28c20.48 25.6 37.12 53.76 51.2 81.92 2.56 5.12 3.84 10.24 6.4 15.36v1.28c8.96 21.76 16.64 44.8 23.04 69.12 2.56 7.68 3.84 16.64 6.4 24.32-1.28-2.56-2.56-3.84-5.12-6.4z m148.48-130.56c-29.44 10.24-55.04 24.32-79.36 40.96-5.12 2.56-8.96 6.4-14.08 10.24-11.52 8.96-24.32 19.2-35.84 30.72-3.84-14.08-8.96-28.16-14.08-40.96 2.56-5.12 3.84-8.96 6.4-14.08 3.84-7.68 7.68-14.08 11.52-21.76 7.68-14.08 16.64-28.16 26.88-42.24l15.36-19.2 3.84-5.12v-1.28c35.84-42.24 72.96-71.68 94.72-87.04-1.28 29.44-1.28 87.04-15.36 149.76z" fill="#333333" p-id="3054"></path></svg>